<svg data-v-423bf9ae="" xmlns="http://www.w3.org/2000/svg" viewBox="0 0 525 90" class="iconLeft"><!----><!----><!----><g data-v-423bf9ae="" id="8a89fa0f-60fd-4742-9ef4-cd1b873c58d6" fill="#FFFFFF" transform="matrix(5.020920753479004,0,0,5.020920753479004,108.24054718017578,13.644350051879883)"><path d="M7 10.50L6.22 8.40L3.04 8.40L2.25 10.50L0.13 10.50L3.49 1.36L5.78 1.36L9.14 10.50L7 10.50ZM3.50 6.64L5.77 6.64L5.77 6.64Q5.77 6.64 5.65 6.34L5.65 6.34L5.65 6.34Q5.53 6.05 5.36 5.61L5.36 5.61L5.36 5.61Q5.18 5.17 4.98 4.66L4.98 4.66L4.98 4.66Q4.77 4.16 4.63 3.77L4.63 3.77L4.63 3.77Q4.31 4.56 4.06 5.19L4.06 5.19L4.06 5.19Q3.95 5.46 3.85 5.72L3.85 5.72L3.85 5.72Q3.75 5.98 3.67 6.18L3.67 6.18L3.67 6.18Q3.58 6.38 3.54 6.51L3.54 6.51L3.54 6.51Q3.50 6.64 3.50 6.64L3.50 6.64ZM14.67 3.18L14.67 5.10L14.67 5.10Q14.35 5.03 14.09 5.02L14.09 5.02L14.09 5.02Q13.83 5.01 13.61 5.03L13.61 5.03L13.61 5.03Q13.16 5.05 12.87 5.22L12.87 5.22L12.87 5.22Q12.59 5.39 12.43 5.66L12.43 5.66L12.43 5.66Q12.28 5.94 12.22 6.28L12.22 6.28L12.22 6.28Q12.17 6.62 12.17 6.99L12.17 6.99L12.17 10.50L10.28 10.50L10.28 3.36L11.66 3.36L11.96 4.93L11.96 4.93Q11.96 4.93 11.99 4.77L11.99 4.77L11.99 4.77Q12.03 4.61 12.13 4.38L12.13 4.38L12.13 4.38Q12.24 4.14 12.43 3.88L12.43 3.88L12.43 3.88Q12.63 3.63 12.93 3.43L12.93 3.43L12.93 3.43Q13.23 3.23 13.66 3.15L13.66 3.15L13.66 3.15Q14.08 3.07 14.67 3.18L14.67 3.18ZM18.38 10.65L18.38 10.65L18.38 10.65Q17.56 10.65 16.98 10.35L16.98 10.35L16.98 10.35Q16.41 10.04 16.05 9.51L16.05 9.51L16.05 9.51Q15.69 8.99 15.53 8.29L15.53 8.29L15.53 8.29Q15.37 7.60 15.37 6.85L15.37 6.85L15.37 6.85Q15.37 6.09 15.53 5.41L15.53 5.41L15.53 5.41Q15.69 4.73 16.05 4.23L16.05 4.23L16.05 4.23Q16.41 3.72 16.98 3.42L16.98 3.42L16.98 3.42Q17.56 3.12 18.38 3.12L18.38 3.12L18.38 3.12Q18.97 3.12 19.40 3.30L19.40 3.30L19.40 3.30Q19.82 3.47 20.10 3.68L20.10 3.68L20.10 3.68Q20.43 3.93 20.64 4.24L20.64 4.24L21.00 3.29L22.46 3.29L22.46 12.22L20.58 12.22L20.58 9.56L20.58 9.56Q20.34 9.87 20.02 10.11L20.02 10.11L20.02 10.11Q19.74 10.32 19.33 10.49L19.33 10.49L19.33 10.49Q18.91 10.65 18.38 10.65ZM18.97 4.59L18.97 4.59L18.97 4.59Q18.63 4.59 18.34 4.72L18.34 4.72L18.34 4.72Q18.05 4.86 17.83 5.14L17.83 5.14L17.83 5.14Q17.61 5.42 17.48 5.84L17.48 5.84L17.48 5.84Q17.35 6.27 17.35 6.85L17.35 6.85L17.35 6.85Q17.35 7.42 17.48 7.86L17.48 7.86L17.48 7.86Q17.61 8.30 17.83 8.60L17.83 8.60L17.83 8.60Q18.05 8.89 18.34 9.04L18.34 9.04L18.34 9.04Q18.63 9.20 18.97 9.20L18.97 9.20L18.97 9.20Q19.64 9.20 20.11 8.60L20.11 8.60L20.11 8.60Q20.58 7.99 20.58 6.85L20.58 6.85L20.58 6.85Q20.58 5.68 20.11 5.14L20.11 5.14L20.11 5.14Q19.64 4.59 18.97 4.59ZM26.98 10.65L26.98 10.65L26.98 10.65Q26.32 10.65 25.84 10.49L25.84 10.49L25.84 10.49Q25.35 10.32 25.03 9.93L25.03 9.93L25.03 9.93Q24.71 9.55 24.55 8.94L24.55 8.94L24.55 8.94Q24.39 8.33 24.39 7.45L24.39 7.45L24.39 3.29L26.26 3.29L26.26 7.20L26.26 7.20Q26.26 8.23 26.54 8.71L26.54 8.71L26.54 8.71Q26.82 9.20 27.51 9.20L27.51 9.20L27.51 9.20Q28.34 9.20 28.74 8.52L28.74 8.52L28.74 8.52Q29.13 7.84 29.13 6.72L29.13 6.72L29.13 3.29L31.01 3.29L31.01 10.50L29.58 10.50L29.20 9.51L29.20 9.51Q29.20 9.51 29.06 9.68L29.06 9.68L29.06 9.68Q28.92 9.86 28.64 10.07L28.64 10.07L28.64 10.07Q28.36 10.29 27.95 10.47L27.95 10.47L27.95 10.47Q27.54 10.65 26.98 10.65ZM36.43 10.65L36.43 10.65L36.43 10.65Q35.27 10.65 34.51 10.35L34.51 10.35L34.51 10.35Q33.75 10.04 33.30 9.52L33.30 9.52L33.30 9.52Q32.84 9.00 32.66 8.32L32.66 8.32L32.66 8.32Q32.48 7.64 32.48 6.89L32.48 6.89L32.48 6.89Q32.48 6.22 32.66 5.54L32.66 5.54L32.66 5.54Q32.84 4.87 33.24 4.33L33.24 4.33L33.24 4.33Q33.64 3.79 34.29 3.46L34.29 3.46L34.29 3.46Q34.93 3.12 35.85 3.12L35.85 3.12L35.85 3.12Q36.83 3.12 37.49 3.46L37.49 3.46L37.49 3.46Q38.14 3.79 38.53 4.33L38.53 4.33L38.53 4.33Q38.92 4.87 39.08 5.54L39.08 5.54L39.08 5.54Q39.24 6.22 39.24 6.89L39.24 6.89L39.24 7.52L34.29 7.52L34.29 7.52Q34.29 8.27 34.83 8.76L34.83 8.76L34.83 8.76Q35.36 9.25 36.30 9.25L36.30 9.25L36.30 9.25Q36.83 9.25 37.28 9.14L37.28 9.14L37.28 9.14Q37.73 9.03 38.05 8.89L38.05 8.89L38.05 8.89Q38.42 8.74 38.72 8.53L38.72 8.53L38.72 10.09L38.72 10.09Q38.72 10.11 38.54 10.19L38.54 10.19L38.54 10.19Q38.36 10.28 38.05 10.38L38.05 10.38L38.05 10.38Q37.74 10.49 37.32 10.57L37.32 10.57L37.32 10.57Q36.90 10.65 36.43 10.65ZM34.29 6.19L37.46 6.19L37.46 6.19Q37.46 5.95 37.40 5.66L37.40 5.66L37.40 5.66Q37.34 5.38 37.16 5.12L37.16 5.12L37.16 5.12Q36.99 4.87 36.67 4.70L36.67 4.70L36.67 4.70Q36.36 4.54 35.85 4.54L35.85 4.54L35.85 4.54Q35.42 4.54 35.12 4.70L35.12 4.70L35.12 4.70Q34.82 4.87 34.64 5.12L34.64 5.12L34.64 5.12Q34.45 5.38 34.37 5.66L34.37 5.66L34.37 5.66Q34.29 5.95 34.29 6.19L34.29 6.19ZM45.15 3.18L45.15 5.10L45.15 5.10Q44.83 5.03 44.57 5.02L44.57 5.02L44.57 5.02Q44.31 5.01 44.09 5.03L44.09 5.03L44.09 5.03Q43.64 5.05 43.35 5.22L43.35 5.22L43.35 5.22Q43.06 5.39 42.91 5.66L42.91 5.66L42.91 5.66Q42.76 5.94 42.70 6.28L42.70 6.28L42.70 6.28Q42.64 6.62 42.64 6.99L42.64 6.99L42.64 10.50L40.75 10.50L40.75 3.36L42.14 3.36L42.43 4.93L42.43 4.93Q42.43 4.93 42.47 4.77L42.47 4.77L42.47 4.77Q42.50 4.61 42.61 4.38L42.61 4.38L42.61 4.38Q42.71 4.14 42.91 3.88L42.91 3.88L42.91 3.88Q43.11 3.63 43.41 3.43L43.41 3.43L43.41 3.43Q43.71 3.23 44.14 3.15L44.14 3.15L44.14 3.15Q44.56 3.07 45.15 3.18L45.15 3.18ZM46.26 2.31L47.50 0.27L49.29 0.27L47.43 2.31L46.26 2.31ZM48.29 10.50L46.40 10.50L46.40 3.29L48.29 3.29L48.29 10.50ZM52.92 3.12L52.92 3.12L52.92 3.12Q53.38 3.12 53.91 3.27L53.91 3.27L53.91 3.27Q54.45 3.42 54.91 3.75L54.91 3.75L54.91 3.75Q55.37 4.07 55.66 4.59L55.66 4.59L55.66 4.59Q55.96 5.11 55.94 5.85L55.94 5.85L55.94 10.50L54.57 10.50L54.57 10.50Q54.57 10.50 54.53 10.33L54.53 10.33L54.53 10.33Q54.49 10.16 54.44 9.95L54.44 9.95L54.44 9.95Q54.39 9.74 54.35 9.58L54.35 9.58L54.35 9.58Q54.31 9.42 54.31 9.44L54.31 9.44L54.31 9.44Q54.11 9.79 53.79 10.05L53.79 10.05L53.79 10.05Q53.51 10.29 53.07 10.47L53.07 10.47L53.07 10.47Q52.63 10.65 51.98 10.65L51.98 10.65L51.98 10.65Q51.53 10.65 51.10 10.52L51.10 10.52L51.10 10.52Q50.67 10.39 50.32 10.13L50.32 10.13L50.32 10.13Q49.98 9.87 49.76 9.48L49.76 9.48L49.76 9.48Q49.55 9.09 49.53 8.57L49.53 8.57L49.53 8.57Q49.50 8.02 49.68 7.59L49.68 7.59L49.68 7.59Q49.85 7.17 50.18 6.86L50.18 6.86L50.18 6.86Q50.51 6.55 50.97 6.36L50.97 6.36L50.97 6.36Q51.44 6.17 51.98 6.10L51.98 6.10L51.98 6.10Q52.50 6.03 53.12 6.03L53.12 6.03L53.12 6.03Q53.73 6.03 54.22 6.06L54.22 6.06L54.22 5.84L54.22 5.84Q54.22 5.24 53.96 4.93L53.96 4.93L53.96 4.93Q53.69 4.63 53.29 4.54L53.29 4.54L53.29 4.54Q52.89 4.45 52.42 4.52L52.42 4.52L52.42 4.52Q51.94 4.59 51.51 4.72L51.51 4.72L51.51 4.72Q51.07 4.86 50.74 5.00L50.74 5.00L50.74 5.00Q50.41 5.15 50.33 5.22L50.33 5.22L50.33 3.81L50.33 3.81Q50.34 3.79 50.58 3.69L50.58 3.69L50.58 3.69Q50.82 3.58 51.18 3.46L51.18 3.46L51.18 3.46Q51.55 3.33 52.00 3.23L52.00 3.23L52.00 3.23Q52.46 3.12 52.92 3.12ZM53.82 8.68L53.82 8.68L53.82 8.68Q54.05 8.37 54.13 7.99L54.13 7.99L54.13 7.99Q54.21 7.62 54.21 7.20L54.21 7.20L53.40 7.20L53.40 7.20Q53.07 7.20 52.71 7.24L52.71 7.24L52.71 7.24Q52.35 7.28 52.04 7.41L52.04 7.41L52.04 7.41Q51.73 7.53 51.52 7.78L51.52 7.78L51.52 7.78Q51.31 8.02 51.31 8.44L51.31 8.44L51.31 8.44Q51.31 8.90 51.65 9.11L51.65 9.11L51.65 9.11Q52.00 9.32 52.50 9.32L52.50 9.32L52.50 9.32Q52.93 9.32 53.26 9.15L53.26 9.15L53.26 9.15Q53.59 8.97 53.82 8.68ZM57.69 10.50L57.69 8.54L59.65 8.54L59.65 10.50L57.69 10.50ZM65.70 10.65L65.70 10.65L65.70 10.65Q65.16 10.65 64.75 10.49L64.75 10.49L64.75 10.49Q64.34 10.32 64.06 10.11L64.06 10.11L64.06 10.11Q63.74 9.87 63.50 9.56L63.50 9.56L63.50 12.22L61.63 12.22L61.63 3.29L63.08 3.29L63.45 4.24L63.45 4.24Q63.66 3.93 63.98 3.68L63.98 3.68L63.98 3.68Q64.26 3.47 64.68 3.30L64.68 3.30L64.68 3.30Q65.10 3.12 65.70 3.12L65.70 3.12L65.70 3.12Q66.53 3.12 67.10 3.42L67.10 3.42L67.10 3.42Q67.68 3.72 68.03 4.23L68.03 4.23L68.03 4.23Q68.39 4.73 68.55 5.41L68.55 5.41L68.55 5.41Q68.71 6.09 68.71 6.85L68.71 6.85L68.71 6.85Q68.71 7.60 68.55 8.29L68.55 8.29L68.55 8.29Q68.39 8.99 68.03 9.51L68.03 9.51L68.03 9.51Q67.68 10.04 67.10 10.35L67.10 10.35L67.10 10.35Q66.53 10.65 65.70 10.65ZM65.11 4.59L65.11 4.59L65.11 4.59Q64.44 4.59 63.97 5.14L63.97 5.14L63.97 5.14Q63.50 5.68 63.50 6.85L63.50 6.85L63.50 6.85Q63.50 7.99 63.97 8.60L63.97 8.60L63.97 8.60Q64.44 9.20 65.11 9.20L65.11 9.20L65.11 9.20Q65.45 9.20 65.74 9.04L65.74 9.04L65.74 9.04Q66.04 8.89 66.26 8.60L66.26 8.60L66.26 8.60Q66.47 8.30 66.61 7.86L66.61 7.86L66.61 7.86Q66.74 7.42 66.74 6.85L66.74 6.85L66.74 6.85Q66.74 6.27 66.61 5.84L66.61 5.84L66.61 5.84Q66.47 5.42 66.26 5.14L66.26 5.14L66.26 5.14Q66.04 4.86 65.74 4.72L65.74 4.72L65.74 4.72Q65.45 4.59 65.11 4.59ZM74.58 3.18L74.58 5.10L74.58 5.10Q74.26 5.03 74.00 5.02L74.00 5.02L74.00 5.02Q73.74 5.01 73.51 5.03L73.51 5.03L73.51 5.03Q73.07 5.05 72.78 5.22L72.78 5.22L72.78 5.22Q72.49 5.39 72.34 5.66L72.34 5.66L72.34 5.66Q72.18 5.94 72.13 6.28L72.13 6.28L72.13 6.28Q72.07 6.62 72.07 6.99L72.07 6.99L72.07 10.50L70.18 10.50L70.18 3.36L71.57 3.36L71.86 4.93L71.86 4.93Q71.86 4.93 71.90 4.77L71.90 4.77L71.90 4.77Q71.93 4.61 72.04 4.38L72.04 4.38L72.04 4.38Q72.14 4.14 72.34 3.88L72.34 3.88L72.34 3.88Q72.53 3.63 72.84 3.43L72.84 3.43L72.84 3.43Q73.14 3.23 73.56 3.15L73.56 3.15L73.56 3.15Q73.99 3.07 74.58 3.18L74.58 3.18ZM79.04 3.12L79.04 3.12L79.04 3.12Q79.60 3.12 80.26 3.29L80.26 3.29L80.26 3.29Q80.92 3.46 81.49 3.88L81.49 3.88L81.49 3.88Q82.07 4.30 82.45 5.03L82.45 5.03L82.45 5.03Q82.84 5.75 82.84 6.89L82.84 6.89L82.84 6.89Q82.84 8.02 82.45 8.75L82.45 8.75L82.45 8.75Q82.07 9.48 81.49 9.90L81.49 9.90L81.49 9.90Q80.92 10.32 80.26 10.49L80.26 10.49L80.26 10.49Q79.60 10.65 79.04 10.65L79.04 10.65L79.04 10.65Q78.48 10.65 77.83 10.49L77.83 10.49L77.83 10.49Q77.17 10.32 76.60 9.90L76.60 9.90L76.60 9.90Q76.03 9.48 75.66 8.75L75.66 8.75L75.66 8.75Q75.28 8.02 75.28 6.89L75.28 6.89L75.28 6.89Q75.28 5.75 75.66 5.03L75.66 5.03L75.66 5.03Q76.03 4.30 76.60 3.88L76.60 3.88L76.60 3.88Q77.17 3.46 77.83 3.29L77.83 3.29L77.83 3.29Q78.48 3.12 79.04 3.12ZM79.04 9.25L79.04 9.25L79.04 9.25Q79.83 9.25 80.35 8.64L80.35 8.64L80.35 8.64Q80.88 8.02 80.88 6.89L80.88 6.89L80.88 6.89Q80.88 5.75 80.35 5.14L80.35 5.14L80.35 5.14Q79.83 4.54 79.04 4.54L79.04 4.54L79.04 4.54Q78.29 4.54 77.77 5.14L77.77 5.14L77.77 5.14Q77.25 5.75 77.25 6.89L77.25 6.89L77.25 6.89Q77.25 7.45 77.39 7.89L77.39 7.89L77.39 7.89Q77.53 8.33 77.77 8.63L77.77 8.63L77.77 8.63Q78.01 8.93 78.34 9.09L78.34 9.09L78.34 9.09Q78.67 9.25 79.04 9.25Z"></path></g><!----><g data-v-423bf9ae="" id="9823a1aa-3297-4cd9-a526-711d9f51a49c" transform="matrix(3.3334567546844482,0,0,3.3334567546844482,-8.662971496582031,-7.835974216461182)" stroke="none" fill="#F9B200"><g color="#000" font-weight="400" font-family="sans-serif" white-space="normal"><path style="line-height:normal;text-indent:0;text-align:start;text-decoration-line:none;text-decoration-style:solid;text-decoration-color:#000;text-transform:none;block-progression:tb;isolation:auto;mix-blend-mode:normal" d="M14.463 6.25c-6.149 0-11.125 4.974-11.125 11.123a11.12 11.12 0 0 0 11.125 11.125 11.12 11.12 0 0 0 11.125-11.125c0-2.713-.984-5.184-2.596-7.113l-2.303 2.304a7.832 7.832 0 0 1 1.649 4.81c0 4.344-3.53 7.874-7.875 7.874-4.345 0-7.875-3.53-7.875-7.875a7.88 7.88 0 0 1 7.875-7.875 7.83 7.83 0 0 1 4.808 1.649l2.305-2.303a11.056 11.056 0 0 0-7.113-2.594z" overflow="visible"></path><path style="line-height:normal;text-indent:0;text-align:start;text-decoration-line:none;text-decoration-style:solid;text-decoration-color:#000;text-transform:none;block-progression:tb;isolation:auto;mix-blend-mode:normal" d="M14.463 10.248a7.12 7.12 0 0 0-7.125 7.125 7.12 7.12 0 0 0 7.125 7.125 7.12 7.12 0 0 0 7.125-7.125 7.07 7.07 0 0 0-1.44-4.266l-2.338 2.34c.33.57.528 1.223.528 1.926a3.88 3.88 0 0 1-3.875 3.875 3.88 3.88 0 0 1-3.875-3.875 3.88 3.88 0 0 1 3.875-3.875 3.83 3.83 0 0 1 1.928.527l2.34-2.337a7.073 7.073 0 0 0-4.268-1.44z" overflow="visible"></path><path style="line-height:normal;text-indent:0;text-align:start;text-decoration-line:none;text-decoration-style:solid;text-decoration-color:#000;text-transform:none;block-progression:tb;isolation:auto;mix-blend-mode:normal" d="M14.463 14.248a3.12 3.12 0 0 0-3.125 3.125 3.12 3.12 0 0 0 3.125 3.125 3.12 3.12 0 0 0 3.125-3.125c0-.496-.128-.956-.334-1.371l-.988.99c.153.054.332.063.435.176.182.198.256.446.258.68 0 .234-.072.478-.25.68-.178.201-.47.325-.754.324l-1.986.023a1 1 0 0 1-1.004-.998.625.625 0 0 1 0-.01V15.89a1.01 1.01 0 0 1 .982-1.02c.435-.01.656.406.797.797l1.088-1.088a3.06 3.06 0 0 0-1.37-.332zM5.539 25.186c.385.44.8.856 1.246 1.235a.375.375 0 0 0-.133.115L4.545 29.5H2.664l2.875-4.312zM23.386 25.186l2.875 4.313h-1.88l-2.108-2.963a.375.375 0 0 0-.133-.115c.447-.38.86-.794 1.247-1.235z" overflow="visible"></path><path d="M26.957 2.501a.375.375 0 0 0-.37.38V4.72l-1.25 1.25V4.882a.375.375 0 0 0-.38-.381.375.375 0 0 0-.37.38V6.72L14.34 16.968l.002-1.086a.375.375 0 0 0-.38-.381.375.375 0 0 0-.37.38l-.004 1.993a.375.375 0 0 0 .38.375l1.991-.02a.375.375 0 1 0-.007-.75l-1.072.012 10.24-10.24h1.836a.375.375 0 1 0 0-.75h-1.086l1.25-1.25h1.836a.375.375 0 1 0 0-.75h-1.617V2.883a.375.375 0 0 0-.381-.38z" style="line-height:normal;text-indent:0;text-align:start;text-decoration-line:none;text-decoration-style:solid;text-decoration-color:#000;text-transform:none;block-progression:tb;isolation:auto;mix-blend-mode:normal" overflow="visible"></path></g></g><!----></svg>